REM DIRINDEX 1\2\6,1\2\4\7,1\2\4\8,1\2\5\9,1\3\12,1\3\10\13,1\3\10\14,1\3\10\15,1\3\11\16,1\3\11\17
REM DIRNAME cjc048,folder01,folder02,folder03,folder04,folder05,folder06,folder07,folder08,folder09,folder10,folder11,folder12,folder13,folder14,folder15,folder16
TITLE ""
FILE "024.mp3" MP3
  TRACK 01 AUDIO
    TITLE "12:cjc048_06025"
    INDEX 01 00:00:00
  TRACK 02 AUDIO
    TITLE "16:cjc048_06026"
    INDEX 01 00:02:22
  TRACK 03 AUDIO
    TITLE "17:cjc048_06027"
    INDEX 01 00:03:33
  TRACK 04 AUDIO
    TITLE "16:cjc048_06028"
    INDEX 01 00:05:09
  TRACK 05 AUDIO
    TITLE "17:cjc048_06029"
    INDEX 01 00:06:08
  TRACK 06 AUDIO
    TITLE "16:cjc048_06030"
    INDEX 01 00:07:31
  TRACK 07 AUDIO
    TITLE "17:cjc048_06031"
    INDEX 01 00:08:09
  TRACK 08 AUDIO
    TITLE "16:cjc048_06032"
    INDEX 01 00:10:21
  TRACK 09 AUDIO
    TITLE "17:cjc048_06033"
    INDEX 01 00:11:29
  TRACK 10 AUDIO
    TITLE "16:cjc048_06034"
    INDEX 01 00:12:60
  TRACK 11 AUDIO
    TITLE "17:cjc048_06035"
    INDEX 01 00:13:55
  TRACK 12 AUDIO
    TITLE "16:cjc048_06036"
    INDEX 01 00:14:70
  TRACK 13 AUDIO
    TITLE "17:cjc048_06037"
    INDEX 01 00:16:00
  TRACK 14 AUDIO
    TITLE "16:cjc048_06038"
    INDEX 01 00:17:59
  TRACK 15 AUDIO
    TITLE "17:cjc048_06039"
    INDEX 01 00:18:50
  TRACK 16 AUDIO
    TITLE "16:cjc048_06040"
    INDEX 01 00:19:73
  TRACK 17 AUDIO
    TITLE "17:cjc048_06041"
    INDEX 01 00:20:73
  TRACK 18 AUDIO
    TITLE "16:cjc048_06042"
    INDEX 01 00:22:38
  TRACK 19 AUDIO
    TITLE "17:cjc048_06043"
    INDEX 01 00:23:34
  TRACK 20 AUDIO
    TITLE "16:cjc048_06044"
    INDEX 01 00:24:69
  TRACK 21 AUDIO
    TITLE "17:cjc048_06045"
    INDEX 01 00:25:72
  TRACK 22 AUDIO
    TITLE "16:cjc048_06046"
    INDEX 01 00:27:10
  TRACK 23 AUDIO
    TITLE "17:cjc048_06047"
    INDEX 01 00:28:06
  TRACK 24 AUDIO
    TITLE "16:cjc048_06048"
    INDEX 01 00:29:09
  TRACK 25 AUDIO
    TITLE "17:cjc048_06049"
    INDEX 01 00:30:12
  TRACK 26 AUDIO
    TITLE "16:cjc048_06050"
    INDEX 01 00:31:41
  TRACK 27 AUDIO
    TITLE "17:cjc048_06051"
    INDEX 01 00:32:31
  TRACK 28 AUDIO
    TITLE "16:cjc048_06052"
    INDEX 01 00:33:66
  TRACK 29 AUDIO
    TITLE "17:cjc048_06053"
    INDEX 01 00:34:63
  TRACK 30 AUDIO
    TITLE "16:cjc048_06054"
    INDEX 01 00:35:59
  TRACK 31 AUDIO
    TITLE "17:cjc048_06055"
    INDEX 01 00:36:68
  TRACK 32 AUDIO
    TITLE "16:cjc048_06056"
    INDEX 01 00:38:30
  TRACK 33 AUDIO
    TITLE "17:cjc048_06057"
    INDEX 01 00:39:51
  TRACK 34 AUDIO
    TITLE "16:cjc048_06058"
    INDEX 01 00:41:51
  TRACK 35 AUDIO
    TITLE "17:cjc048_06059"
    INDEX 01 00:42:57
  TRACK 36 AUDIO
    TITLE "16:cjc048_06060"
    INDEX 01 00:44:12
  TRACK 37 AUDIO
    TITLE "17:cjc048_06061"
    INDEX 01 00:45:06
  TRACK 38 AUDIO
    TITLE "16:cjc048_06062"
    INDEX 01 00:47:44
  TRACK 39 AUDIO
    TITLE "17:cjc048_06063"
    INDEX 01 00:48:49
  TRACK 40 AUDIO
    TITLE "16:cjc048_06064"
    INDEX 01 00:50:13
  TRACK 41 AUDIO
    TITLE "17:cjc048_06065"
    INDEX 01 00:51:22
  TRACK 42 AUDIO
    TITLE "16:cjc048_06066"
    INDEX 01 00:52:71
  TRACK 43 AUDIO
    TITLE "17:cjc048_06067"
    INDEX 01 00:54:01
  TRACK 44 AUDIO
    TITLE "16:cjc048_06068"
    INDEX 01 00:55:16
  TRACK 45 AUDIO
    TITLE "17:cjc048_06069"
    INDEX 01 00:56:24
  TRACK 46 AUDIO
    TITLE "16:cjc048_06070"
    INDEX 01 00:58:01
  TRACK 47 AUDIO
    TITLE "17:cjc048_06071"
    INDEX 01 00:59:16
  TRACK 48 AUDIO
    TITLE "16:cjc048_06072"
    INDEX 01 01:00:62
  TRACK 49 AUDIO
    TITLE "17:cjc048_06073"
    INDEX 01 01:02:10
  TRACK 50 AUDIO
    TITLE "16:cjc048_06074"
    INDEX 01 01:03:37
  TRACK 51 AUDIO
    TITLE "17:cjc048_06075"
    INDEX 01 01:04:41
  TRACK 52 AUDIO
    TITLE "16:cjc048_06076"
    INDEX 01 01:06:61
  TRACK 53 AUDIO
    TITLE "17:cjc048_06077"
    INDEX 01 01:07:68
  TRACK 54 AUDIO
    TITLE "16:cjc048_06078"
    INDEX 01 01:08:74
  TRACK 55 AUDIO
    TITLE "17:cjc048_06079"
    INDEX 01 01:10:06
  TRACK 56 AUDIO
    TITLE "16:cjc048_06080"
    INDEX 01 01:11:52
  TRACK 57 AUDIO
    TITLE "17:cjc048_06081"
    INDEX 01 01:12:44
  TRACK 58 AUDIO
    TITLE "16:cjc048_06082"
    INDEX 01 01:13:73
  TRACK 59 AUDIO
    TITLE "17:cjc048_06083"
    INDEX 01 01:14:70
  TRACK 60 AUDIO
    TITLE "16:cjc048_06084"
    INDEX 01 01:16:28
  TRACK 61 AUDIO
    TITLE "17:cjc048_06085"
    INDEX 01 01:17:53
  TRACK 62 AUDIO
    TITLE "16:cjc048_06086"
    INDEX 01 01:19:01
  TRACK 63 AUDIO
    TITLE "17:cjc048_06087"
    INDEX 01 01:20:10
  TRACK 64 AUDIO
    TITLE "16:cjc048_06088"
    INDEX 01 01:21:41
  TRACK 65 AUDIO
    TITLE "17:cjc048_06089"
    INDEX 01 01:22:60
  TRACK 66 AUDIO
    TITLE "16:cjc048_06090"
    INDEX 01 01:24:26
  TRACK 67 AUDIO
    TITLE "17:cjc048_06091"
    INDEX 01 01:25:43
  TRACK 68 AUDIO
    TITLE "16:cjc048_06092"
    INDEX 01 01:26:60
  TRACK 69 AUDIO
    TITLE "17:cjc048_06093"
    INDEX 01 01:28:33
  TRACK 70 AUDIO
    TITLE "16:cjc048_06094"
    INDEX 01 01:30:30
  TRACK 71 AUDIO
    TITLE "17:cjc048_06095"
    INDEX 01 01:31:51
  TRACK 72 AUDIO
    TITLE "16:cjc048_06096"
    INDEX 01 01:33:15
  TRACK 73 AUDIO
    TITLE "17:cjc048_06097"
    INDEX 01 01:34:18
  TRACK 74 AUDIO
    TITLE "16:cjc048_06098"
    INDEX 01 01:35:51
  TRACK 75 AUDIO
    TITLE "17:cjc048_06099"
    INDEX 01 01:36:54
  TRACK 76 AUDIO
    TITLE "16:cjc048_06100"
    INDEX 01 01:37:56
  TRACK 77 AUDIO
    TITLE "17:cjc048_06101"
    INDEX 01 01:38:55
  TRACK 78 AUDIO
    TITLE "16:cjc048_06102"
    INDEX 01 01:40:19
  TRACK 79 AUDIO
    TITLE "17:cjc048_06103"
    INDEX 01 01:41:24
  TRACK 80 AUDIO
    TITLE "16:cjc048_06104"
    INDEX 01 01:43:25
  TRACK 81 AUDIO
    TITLE "17:cjc048_06105"
    INDEX 01 01:44:23
  TRACK 82 AUDIO
    TITLE "16:cjc048_06106"
    INDEX 01 01:45:51
  TRACK 83 AUDIO
    TITLE "17:cjc048_06107"
    INDEX 01 01:46:57
  TRACK 84 AUDIO
    TITLE "16:cjc048_06108"
    INDEX 01 01:48:56
  TRACK 85 AUDIO
    TITLE "17:cjc048_06109"
    INDEX 01 01:49:39
  TRACK 86 AUDIO
    TITLE "16:cjc048_06110"
    INDEX 01 01:50:64
  TRACK 87 AUDIO
    TITLE "17:cjc048_06111"
    INDEX 01 01:52:06
  TRACK 88 AUDIO
    TITLE "16:cjc048_06112"
    INDEX 01 01:54:15
  TRACK 89 AUDIO
    TITLE "17:cjc048_06113"
    INDEX 01 01:55:07
  TRACK 90 AUDIO
    TITLE "16:cjc048_06114"
    INDEX 01 01:56:30
  TRACK 91 AUDIO
    TITLE "17:cjc048_06115"
    INDEX 01 01:57:33
  TRACK 92 AUDIO
    TITLE "16:cjc048_06116"
    INDEX 01 01:58:54
  TRACK 93 AUDIO
    TITLE "17:cjc048_06117"
    INDEX 01 01:59:51
  TRACK 94 AUDIO
    TITLE "0:"
    INDEX 01 02:01:01
